<?xml version="1.0" encoding="iso-8859-1"?>
<!-- Generator: Adobe Illustrator 19.0.0, SVG Export Plug-In . SVG Version: 6.00 Build 0)  -->
<svg xmlns="http://www.w3.org/2000/svg" xmlns:xlink="http://www.w3.org/1999/xlink" version="1.1" id="Layer_1" x="0px" y="0px" viewBox="0 0 512 512" style="enable-background:new 0 0 512 512;" xml:space="preserve" width="512px" height="512px">
<g>
	<g>
		<g>
			<path d="M512,242.259c0-45.116-36.704-81.82-81.82-81.82c-19.88,0-36.053-16.173-36.053-36.053S410.3,88.332,430.18,88.332     c12.618,0,22.884-10.266,22.884-22.884s-10.266-22.884-22.884-22.884c-45.116,0-81.821,36.705-81.821,81.821     c0,45.116,36.705,81.821,81.821,81.821c19.878,0,36.051,16.173,36.051,36.053c0,8.21-2.74,15.955-7.687,22.23     c-22.773-32.917-60.783-54.528-103.75-54.528H249.78c0.112-2.169,0.17-4.337,0.17-6.506v-80.96c0-0.077-0.001-0.156-0.003-0.232     V69.102c0-10.713-8.714-19.427-19.426-19.427c-4.931,0-9.632,1.849-13.238,5.208c-0.072,0.067-0.143,0.136-0.212,0.206     l-37.743,37.744c-16.482-9.567-35.134-14.593-54.353-14.593c-19.221,0-37.873,5.026-54.354,14.593L32.875,55.089     c-0.07-0.07-0.141-0.138-0.212-0.206c-3.606-3.359-8.307-5.208-13.236-5.208C8.714,49.675,0,58.391,0,69.102v134.352     c0,33.239,13.249,66.785,36.349,92.037c9.139,9.989,19.346,18.27,30.302,24.706c-9.747,7.505-15.689,19.173-15.689,31.879v58.145     H29.655c-16.326,0-29.607,13.281-29.607,29.607v11.693c0,9.878,8.037,17.914,17.916,17.914h83.923     c4.744,0,9.331-1.12,13.454-3.227c2.903,2.028,6.426,3.227,10.227,3.227h83.923c7.063,0,13.553-2.489,18.647-6.632h32.389     c3.288,4.042,8.295,6.632,13.9,6.632h92.039c33.324,0,62.45-18.229,77.991-45.225l0.237,0.232     c23.334-23.725,36.184-55.12,36.184-88.402c0-9.385-1.039-18.533-2.995-27.339C499.352,293.315,512,268.907,512,242.259z      M321.357,226.549h30.886v60.966c0,1.101-0.129,2.175-0.352,3.225c-9,1.473-17.55,4.286-25.447,8.229     c-3.201-2.887-5.087-7.01-5.087-11.453V226.549z M238.777,256.467h0.001c4.155-9.639,7.209-19.695,9.063-29.918h21.823v60.966     c0,8.515-6.928,15.442-15.445,15.442c-8.514,0-15.442-6.927-15.442-15.442V256.467z M109.53,96.138     c5.069-0.859,10.23-1.31,15.443-1.31c5.213,0,10.373,0.451,15.442,1.31v26.011c0,8.515-6.928,15.442-15.442,15.442     c-8.515,0-15.443-6.927-15.443-15.442V96.138z M48.588,284.295c-20.337-22.231-32-51.696-32-80.84V69.102     c0-1.566,1.273-2.839,2.838-2.839c0.864,0,1.477,0.362,1.857,0.692l42.264,42.264c2.799,2.798,7.181,3.228,10.473,1.033     c5.955-3.978,12.305-7.204,18.924-9.667v21.564c0,17.662,14.368,32.03,32.031,32.03c17.662,0,32.03-14.368,32.03-32.03v-21.564     c6.619,2.464,12.97,5.69,18.925,9.667c3.288,2.197,7.672,1.767,10.471-1.033l42.264-42.263c0.379-0.331,0.993-0.692,1.859-0.692     c1.565,0,2.838,1.273,2.838,2.839v53.391c0,0.077,0.001,0.156,0.003,0.232v80.728c0,29.144-11.665,58.61-32.002,80.84     c-20.891,22.836-48.019,35.412-76.387,35.412C96.606,319.707,69.478,307.131,48.588,284.295z M107.653,439.828v11.668     c-1.774,0.878-3.736,1.351-5.766,1.351H17.964c-0.732,0-1.328-0.595-1.328-1.326v-11.693c0-7.178,5.84-13.019,13.019-13.019     h29.602c4.582,0,8.294-3.714,8.294-8.294v-66.439c0-4.06,1.037-7.939,2.895-11.347v18.062c0,31.118,13.517,59.908,37.239,79.743     C107.666,438.963,107.653,439.393,107.653,439.828z M113.815,421.779c-17.131-16.425-26.781-38.879-26.781-62.988v-29.072     c12.165,4.323,24.927,6.576,37.941,6.576c14.202,0,28.106-2.678,41.256-7.809c-4.815,6.634-7.664,14.784-7.664,23.589v58.145     H137.26C127.724,410.221,119.232,414.757,113.815,421.779z M209.491,452.847h-83.923c-0.732,0-1.327-0.595-1.327-1.326v-11.693     c0-7.178,5.84-13.019,13.019-13.019h29.601c4.582,0,8.294-3.714,8.294-8.294v-66.439c0-13.056,10.622-23.678,23.678-23.678     c13.055,0,23.675,10.622,23.675,23.678v87.753h0.001C222.509,447.007,216.669,452.847,209.491,452.847z M256.51,439.828v6.387     h-18.115c0.454-2.058,0.702-4.195,0.702-6.387v-87.753c0-22.202-18.062-40.266-40.263-40.266c-1.093,0-2.172,0.056-3.244,0.142     c6.357-4.822,12.387-10.314,18.01-16.461c3.038-3.321,5.901-6.789,8.59-10.376v2.401c0,17.662,14.369,32.03,32.03,32.03     c17.663,0,32.032-14.369,32.032-32.03v-60.966h18.516v60.966c0,7.604,2.661,14.757,7.315,20.389     c-21.594,16.445-35.567,42.409-35.567,71.584c0,10.601,1.883,21.129,5.506,31.015C267.628,412.503,256.51,424.891,256.51,439.828     z M366.465,452.847h-92.039c-0.732,0-1.328-0.595-1.328-1.326v-11.693c0-7.178,5.84-13.019,13.019-13.019h8.609     c2.927,0,5.638-1.543,7.132-4.06c1.493-2.517,1.55-5.634,0.15-8.204c-5.826-10.684-8.904-22.806-8.904-35.057     c0-40.45,32.909-73.359,73.36-73.359s73.36,32.908,73.36,73.359C439.825,419.938,406.915,452.847,366.465,452.847z      M456.352,377.093c-1.257-47.727-39.854-86.291-87.596-87.494c0.045-0.693,0.073-1.389,0.073-2.085v-60.069     c53.772,6.911,95.458,52.976,95.458,108.596C464.289,350.328,461.557,364.213,456.352,377.093z M472.793,291.632     c-1.578-4.18-3.372-8.256-5.368-12.213c9.849-9.826,15.396-23.02,15.396-37.16c0-29.026-23.615-52.641-52.639-52.641     c-35.969,0-65.233-29.263-65.233-65.233s29.263-65.233,65.233-65.233c3.472,0,6.296,2.824,6.296,6.296     c0,3.471-2.824,6.296-6.296,6.296c-29.027,0-52.641,23.615-52.641,52.641c0,29.027,23.615,52.641,52.641,52.641     c35.968,0,65.232,29.262,65.232,65.232C495.412,261.525,487.115,279.328,472.793,291.632z" fill="#FFFFFF"/>
			<circle cx="57.801" cy="178.615" r="11.64" fill="#FFFFFF"/>
			<path d="M192.148,190.255c6.427,0,11.638-5.212,11.638-11.64c0-6.43-5.212-11.64-11.638-11.64     c-6.431,0-11.644,5.211-11.644,11.64C180.505,185.043,185.718,190.255,192.148,190.255z" fill="#FFFFFF"/>
			<path d="M148.072,260.096c7.256,0.002,13.984-2.312,19.494-6.233l19.951,11.978c1.336,0.803,2.808,1.184,4.262,1.184     c2.817,0,5.563-1.435,7.117-4.026c2.359-3.927,1.086-9.022-2.841-11.379l-17.625-10.582c1.852-3.822,2.997-8.044,3.281-12.497     l22.762-0.862c4.577-0.174,8.147-4.024,7.973-8.601c-0.172-4.577-4.01-8.144-8.601-7.974l-25.209,0.954     c-4.447-9.558-13.237-16.671-24.04-18.765c-2.603-2.465-6.935-4.645-14.129-4.645h-31.185c-7.312,0-11.639,2.213-14.195,4.701     c-10.679,2.161-19.361,9.231-23.769,18.708l-25.21-0.954c-0.108-0.003-0.213-0.005-0.32-0.005c-4.436,0-8.114,3.51-8.282,7.98     c-0.174,4.577,3.396,8.429,7.973,8.601l22.763,0.862c0.283,4.453,1.428,8.676,3.28,12.496l-17.625,10.582     c-3.928,2.358-5.2,7.452-2.841,11.379c1.555,2.591,4.302,4.026,7.118,4.026c1.453,0,2.926-0.381,4.262-1.184l19.952-11.978     c5.508,3.919,12.235,6.235,19.497,6.235c8.711,0,16.94-3.405,23.094-9.191C131.132,256.691,139.361,260.096,148.072,260.096z      M145.354,223.649l6.929-7.185c1.726-1.789,3.006-3.509,3.972-5.147c1.146,0.619,2.211,1.359,3.175,2.211     c-2.821,1.411-4.712,4.372-4.584,7.729c0.168,4.47,3.845,7.98,8.282,7.98c0.106,0,0.212-0.002,0.32-0.005l1.502-0.056     c-0.186,1.124-0.48,2.207-0.872,3.247l-1.5-0.9c-3.926-2.358-9.022-1.086-11.379,2.842c-1.694,2.821-1.506,6.24,0.186,8.819     c-1.075,0.211-2.183,0.328-3.318,0.328c-6.657-0.001-12.764-3.927-15.557-10.004c-0.349-0.76-0.807-1.445-1.347-2.05     C136.546,230.368,141.459,227.689,145.354,223.649z M140.068,205.235l-6.654,6.899c-2.045,2.119-4.812,3.287-7.792,3.287     c-2.829,0-5.496-1.07-7.508-3.013l-7.428-7.173H140.068z M117.437,233.508c-2.792,6.077-8.9,10.003-15.557,10.003     c-1.135,0-2.242-0.116-3.316-0.328c1.692-2.579,1.88-5.998,0.186-8.819c-2.359-3.928-7.456-5.2-11.379-2.842l-1.498,0.9     c-0.393-1.038-0.687-2.123-0.871-3.246l1.501,0.056c0.108,0.004,0.213,0.005,0.32,0.005c4.436,0,8.114-3.51,8.282-7.98     c0.127-3.357-1.764-6.318-4.585-7.729c1.043-0.922,2.198-1.722,3.454-2.369c1.027,1.607,2.376,3.288,4.181,5.031l8.439,8.149     c3.511,3.389,7.791,5.735,12.439,6.875C118.387,231.878,117.837,232.64,117.437,233.508z" fill="#FFFFFF"/>
		</g>
	</g>
</g>
<g>
</g>
<g>
</g>
<g>
</g>
<g>
</g>
<g>
</g>
<g>
</g>
<g>
</g>
<g>
</g>
<g>
</g>
<g>
</g>
<g>
</g>
<g>
</g>
<g>
</g>
<g>
</g>
<g>
</g>
</svg>
