<svg xmlns="http://www.w3.org/2000/svg" xmlns:xlink="http://www.w3.org/1999/xlink" style="enable-background:new 0 0 78.53 78.53" id="Capa_1" width="512" height="512" x="0" y="0" version="1.1" viewBox="0 0 78.53 78.53" xml:space="preserve"><g><path fill="#FFF" d="M71.739,6.792C67.358,2.412,61.536,0,55.341,0c-6.193,0-12.016,2.412-16.395,6.792c-0.283,0.283-0.555,0.571-0.819,0.863 l-1.18,1.18c-0.468-1.1-1.146-2.125-2.028-3.007c-1.821-1.82-4.242-2.823-6.817-2.823s-4.996,1.002-6.818,2.823 c-10.621,10.623-9.708,23.001-8.904,27.576l-4.937,4.937c0,0-0.001,0-0.001,0.001s-0.001,0.001-0.001,0.002l-6.56,6.559 c-0.563,0.563-0.879,1.326-0.879,2.121c0,0.797,0.316,1.56,0.878,2.121l28.505,28.506c0.563,0.563,1.326,0.879,2.122,0.879 s1.559-0.315,2.122-0.879l6.342-6.342c0.08-0.064,0.165-0.121,0.239-0.197c0.076-0.074,0.133-0.16,0.197-0.24L70.87,40.407 c0.293-0.264,0.58-0.535,0.867-0.82c4.379-4.379,6.791-10.203,6.791-16.396C78.53,16.994,76.118,11.171,71.739,6.792z M31.506,71.285L7.244,47.023l2.318-2.318l24.263,24.262L31.506,71.285z M67.498,35.338c-0.225,0.223-0.453,0.438-0.686,0.645 c-0.044,0.039-0.086,0.08-0.127,0.121l-28.62,28.621l-24.26-24.263l3.973-3.973c0.766-0.767,1.056-1.897,0.765-2.941 c-0.147-0.526-3.483-13.01,6.983-23.479c1.375-1.375,3.775-1.375,5.15,0c1.261,1.262,1.413,3.294,0.354,4.728 c-0.933,1.263-0.734,3.032,0.456,4.056c1.19,1.025,2.969,0.958,4.079-0.152l6.86-6.86c0.038-0.039,0.075-0.078,0.112-0.119 c0.209-0.233,0.426-0.463,0.65-0.688c3.245-3.247,7.563-5.035,12.152-5.035c4.592,0,8.908,1.788,12.154,5.035 c3.246,3.246,5.033,7.562,5.033,12.153C72.528,27.778,70.741,32.095,67.498,35.338z"/></g></svg>